<svg width="526.26875px" height="170px" xmlns="http://www.w3.org/2000/svg" viewBox="-13.134374999999977 -10 526.26875 170" style="background: rgba(147, 219, 233, 0);" preserveAspectRatio="xMidYMid"><defs><linearGradient id="editing-outline-gradient" x1="0.7923717047227367" x2="0.20762829527726334" y1="-0.45630475596303555" y2="1.4563047559630355"><stop offset="0" stop-color="rgba(0%,0%,0%,0)"></stop><stop offset="1" stop-color="#1a651e"></stop></linearGradient><filter id="editing-outline" x="-100%" y="-100%" width="300%" height="300%"><feMorphology in="SourceGraphic" operator="dilate" radius="3" result="outline"></feMorphology><feComposite operator="out" in="outline" in2="SourceAlpha"></feComposite></filter></defs><g filter="url(#editing-outline)"><g transform="translate(63.73059368133545, 105.27500343322754)"><path d="M4.30-51.27L4.30-51.27L4.30-51.27Q4.30-54.00 6.20-55.91L6.20-55.91L6.20-55.91Q8.11-57.81 10.84-57.81L10.84-57.81L67.68-57.81L67.68-57.81Q70.41-57.81 72.36-55.96L72.36-55.96L72.36-55.96Q74.22-54.00 74.22-51.27L74.22-51.27L74.22-51.27Q74.22-48.54 72.31-46.63L72.31-46.63L72.31-46.63Q70.41-44.73 67.68-44.73L67.68-44.73L45.90-44.73L45.90-5.18L45.90-5.18Q45.31 0.68 39.45 1.17L39.45 1.17L39.45 1.17Q36.72 1.17 34.72-0.63L34.72-0.63L34.72-0.63Q32.71-2.44 32.71-5.18L32.71-5.18L32.71-44.73L10.84-44.73L10.84-44.73Q8.11-44.73 6.25-46.68L6.25-46.68L6.25-46.68Q4.30-48.54 4.30-51.27ZM105.27-23.44L88.48-23.44L88.48-23.44Q86.33-23.44 84.77-24.95L84.77-24.95L84.77-24.95Q83.20-26.46 83.20-28.66L83.20-28.66L83.20-28.66Q83.20-30.86 84.77-32.37L84.77-32.37L84.77-32.37Q86.33-33.89 88.48-33.89L88.48-33.89L105.27-33.89L105.27-33.89Q107.42-33.89 108.98-32.37L108.98-32.37L108.98-32.37Q110.55-30.86 110.55-28.66L110.55-28.66L110.55-28.66Q110.55-26.46 108.98-24.95L108.98-24.95L108.98-24.95Q107.42-23.44 105.27-23.44L105.27-23.44ZM142.58-59.38L142.58-59.38L142.58-59.38Q145.31-59.38 147.27-57.57L147.27-57.57L147.27-57.57Q149.22-55.76 149.32-53.03L149.32-53.03L149.32-44.53L182.52-44.53L182.52-44.53Q185.25-44.53 187.21-42.68L187.21-42.68L187.21-42.68Q189.06-40.72 189.06-37.99L189.06-37.99L189.06-37.99Q189.06-35.25 187.16-33.35L187.16-33.35L187.16-33.35Q185.25-31.45 182.52-31.45L182.52-31.45L149.32-31.45L149.32-29.49L149.32-29.49Q149.22-25.49 149.85-22.12L149.85-22.12L149.85-22.12Q150.49-18.75 152.93-16.11L152.93-16.11L152.93-16.11Q155.37-13.48 159.08-13.28L159.08-13.28L182.91-13.28L182.91-13.28Q185.64-13.18 187.45-11.23L187.45-11.23L187.45-11.23Q189.26-9.28 189.26-6.54L189.26-6.54L189.26-6.54Q189.16-3.91 187.35-2.10L187.35-2.10L187.35-2.10Q185.55-0.29 182.91-0.20L182.91-0.20L155.76-0.20L155.76-0.20Q148.93-0.59 144.48-4.83L144.48-4.83L144.48-4.83Q140.04-9.08 138.09-15.23L138.09-15.23L138.09-15.23Q136.23-21.39 136.13-28.32L136.13-28.32L136.13-31.45L124.90-31.45L124.90-31.45Q122.17-31.45 120.31-33.40L120.31-33.40L120.31-33.40Q118.36-35.25 118.36-37.99L118.36-37.99L118.36-37.99Q118.36-40.72 120.26-42.63L120.26-42.63L120.26-42.63Q122.17-44.53 124.90-44.53L124.90-44.53L136.13-44.53L136.13-53.03L136.13-53.03Q136.23-55.66 138.09-57.47L138.09-57.47L138.09-57.47Q139.94-59.28 142.58-59.38ZM253.22-5.37L253.22-5.37L253.22-28.91L253.22-28.91Q253.22-31.35 250.68-31.45L250.68-31.45L216.50-31.45L216.50-31.45Q214.65-31.35 213.28-29.83L213.28-29.83L213.28-29.83Q211.91-28.32 211.28-26.32L211.28-26.32L211.28-26.32Q210.64-24.32 210.64-22.27L210.64-22.27L210.64-22.27Q210.64-20.31 211.28-18.31L211.28-18.31L211.28-18.31Q211.91-16.31 213.28-14.79L213.28-14.79L213.28-14.79Q214.65-13.28 216.50-13.28L216.50-13.28L241.50-13.28L241.50-13.28Q244.24-13.28 246.14-11.38L246.14-11.38L246.14-11.38Q248.05-9.47 248.05-6.74L248.05-6.74L248.05-6.74Q248.05-4.00 246.09-2.15L246.09-2.15L246.09-2.15Q244.24-0.20 241.50-0.20L241.50-0.20L216.89-0.20L216.89-0.20Q210.06-0.29 205.62-4.05L205.62-4.05L205.62-4.05Q201.17-7.81 199.27-12.55L199.27-12.55L199.27-12.55Q197.36-17.29 197.36-22.36L197.36-22.36L197.36-22.36Q197.36-27.25 199.32-31.98L199.32-31.98L199.32-31.98Q201.27-36.72 205.66-40.48L205.66-40.48L205.66-40.48Q210.06-44.24 218.65-44.53L218.65-44.53L259.67-44.53L259.67-44.53Q262.40-44.53 264.36-42.72L264.36-42.72L264.36-42.72Q266.31-40.92 266.41-38.18L266.41-38.18L266.41-5.37L266.41-5.37Q266.41-2.64 264.40-0.83L264.40-0.83L264.40-0.83Q262.40 0.98 259.67 0.98L259.67 0.98L259.67 0.98Q253.81 0.49 253.22-5.37ZM285.74-59.38L285.74-59.38L285.74-59.38Q288.38-59.28 290.23-57.47L290.23-57.47L290.23-57.47Q292.09-55.66 292.19-53.03L292.19-53.03L292.19-5.18L292.19-5.18Q291.60 0.68 285.74 1.17L285.74 1.17L285.74 1.17Q283.01 1.17 281.01-0.63L281.01-0.63L281.01-0.63Q279.00-2.44 279.00-5.18L279.00-5.18L279.00-53.03L279.00-53.03Q279.10-55.76 281.05-57.57L281.05-57.57L281.05-57.57Q283.01-59.38 285.74-59.38ZM311.33-59.38L311.33-59.38L311.33-59.38Q313.96-59.28 315.82-57.47L315.82-57.47L315.82-57.47Q317.68-55.66 317.77-53.03L317.77-53.03L317.77-5.18L317.77-5.18Q317.19 0.68 311.33 1.17L311.33 1.17L311.33 1.17Q308.59 1.17 306.59-0.63L306.59-0.63L306.59-0.63Q304.59-2.44 304.59-5.18L304.59-5.18L304.59-53.03L304.59-53.03Q304.69-55.76 306.64-57.57L306.64-57.57L306.64-57.57Q308.59-59.38 311.33-59.38ZM323.73-32.13L323.73-32.13L323.73-32.13Q326.56-36.72 334.57-38.87L334.57-38.87L359.67-45.61L359.67-45.61Q362.30-46.39 364.65-45.12L364.65-45.12L364.65-45.12Q367.09-43.95 367.87-41.31L367.87-41.31L367.87-41.31Q368.75-38.77 367.53-36.38L367.53-36.38L367.53-36.38Q366.31-33.98 363.67-33.11L363.67-33.11L336.91-26.17L336.91-26.17Q334.08-25.10 334.18-22.46L334.18-22.46L334.18-22.46Q334.08-19.82 336.91-18.75L336.91-18.75L363.67-11.82L363.67-11.82Q366.31-10.94 367.53-8.54L367.53-8.54L367.53-8.54Q368.75-6.15 367.87-3.61L367.87-3.61L367.87-3.61Q367.09-0.98 364.65 0.20L364.65 0.20L364.65 0.20Q362.30 1.46 359.67 0.68L359.67 0.68L334.57-6.05L334.57-6.05Q326.46-8.30 323.68-12.89L323.68-12.89L323.68-12.89Q320.90-17.48 320.90-22.46L320.90-22.46L320.90-22.46Q320.90-27.44 323.73-32.13Z" fill="url(#editing-outline-gradient)"></path></g></g><style>text {
  font-size: 64px;
  font-family: Arial Black;
  dominant-baseline: central;
  text-anchor: middle;
}</style></svg>